<svg width="21" height="42" viewBox="0 0 21 42" fill="none" xmlns="http://www.w3.org/2000/svg">
<path fill-rule="evenodd" clip-rule="evenodd" d="M5.1495 20.792V39.667C5.14948 39.7966 5.20038 39.921 5.29123 40.0134C5.38208 40.1058 5.50561 40.1589 5.63519 40.161H12.6275C12.6923 40.161 12.7566 40.1483 12.8165 40.1234C12.8765 40.0986 12.9309 40.0622 12.9768 40.0163C13.0227 39.9705 13.0591 39.916 13.0839 39.8561C13.1088 39.7961 13.1215 39.7319 13.1215 39.667V20.4822H18.2045C18.3283 20.4845 18.4482 20.4387 18.5388 20.3543C18.6294 20.2699 18.6837 20.1536 18.6902 20.03L19.1843 14.2519C19.1902 14.184 19.1817 14.1156 19.1594 14.0512C19.1371 13.9868 19.1015 13.9277 19.0549 13.878C19.0083 13.8282 18.9518 13.7888 18.8889 13.7624C18.8261 13.7359 18.7584 13.723 18.6902 13.7244H13.1383V9.663C13.1383 9.20105 13.3218 8.75802 13.6484 8.43137C13.9751 8.10472 14.4181 7.92121 14.8801 7.92121H18.7991C18.8636 7.92122 18.9274 7.90839 18.9869 7.88346C19.0464 7.85853 19.1003 7.822 19.1455 7.77601C19.1907 7.73002 19.2263 7.67548 19.2502 7.61559C19.2742 7.55569 19.2859 7.49163 19.2848 7.42715V1.6491C19.2848 1.5195 19.2339 1.39509 19.143 1.30267C19.0522 1.21025 18.9287 1.15723 18.7991 1.15503H12.1753C10.3111 1.15725 8.52414 1.89932 7.20679 3.21824C5.88944 4.53716 5.14949 6.32506 5.1495 8.18918V13.7663H1.6408C1.5767 13.7651 1.51304 13.7769 1.4536 13.8009C1.39416 13.8249 1.34016 13.8606 1.29483 13.906C1.24951 13.9513 1.21377 14.0053 1.18976 14.0647C1.16576 14.1242 1.15397 14.1879 1.1551 14.2519V20.0384C1.15397 20.1025 1.16576 20.1661 1.18976 20.2256C1.21377 20.285 1.24951 20.339 1.29483 20.3843C1.34016 20.4297 1.39416 20.4654 1.4536 20.4894C1.51304 20.5134 1.5767 20.5252 1.6408 20.5241H5.1495V20.792Z" stroke="#37BEDF" stroke-width="2.31" stroke-miterlimit="10"/>
</svg>
