<svg width="40" height="40" viewBox="0 0 40 40" fill="none" xmlns="http://www.w3.org/2000/svg">
<path d="M29.8443 8.75024C29.407 8.75024 28.9796 8.8799 28.6161 9.12282C28.2525 9.36574 27.9691 9.71101 27.8018 10.115C27.6345 10.5189 27.5907 10.9634 27.676 11.3923C27.7613 11.8211 27.9719 12.215 28.281 12.5242C28.5902 12.8334 28.9841 13.0439 29.413 13.1292C29.8418 13.2145 30.2863 13.1707 30.6903 13.0034C31.0942 12.8361 31.4395 12.5527 31.6824 12.1892C31.9253 11.8256 32.055 11.3982 32.055 10.961C32.055 10.3747 31.8221 9.81235 31.4075 9.39775C30.9929 8.98316 30.4306 8.75024 29.8443 8.75024Z" stroke="#37BEDF" stroke-width="2.31" stroke-miterlimit="10"/>
<path d="M20.0298 11.6643C18.3735 11.6643 16.7545 12.1554 15.3774 13.0756C14.0003 13.9957 12.927 15.3036 12.2932 16.8337C11.6594 18.3639 11.4936 20.0476 11.8167 21.672C12.1398 23.2964 12.9373 24.7885 14.1085 25.9596C15.2796 27.1307 16.7717 27.9283 18.3961 28.2514C20.0205 28.5745 21.7042 28.4086 23.2343 27.7748C24.7645 27.141 26.0723 26.0677 26.9925 24.6906C27.9126 23.3135 28.4037 21.6945 28.4037 20.0383C28.4037 17.8174 27.5215 15.6874 25.9511 14.117C24.3806 12.5466 22.2507 11.6643 20.0298 11.6643Z" stroke="#37BEDF" stroke-width="2.31" stroke-miterlimit="10"/>
<path d="M27.4745 38.8547H12.4013C9.41314 38.8348 6.55402 37.6344 4.44732 35.5151C2.34061 33.3959 1.15717 30.5297 1.15503 27.5415V12.4683C1.15725 9.4685 2.34989 6.59222 4.47106 4.47106C6.59222 2.34989 9.4685 1.15725 12.4683 1.15503H27.5414C30.5412 1.15725 33.4175 2.34989 35.5387 4.47106C37.6598 6.59222 38.8525 9.4685 38.8547 12.4683V27.5415C38.8536 29.0325 38.558 30.5086 37.9849 31.8851C37.4118 33.2615 36.5724 34.5112 35.515 35.5624C34.4576 36.6136 33.203 37.4456 31.8231 38.0106C30.4433 38.5756 28.9655 38.8624 27.4745 38.8547Z" stroke="#37BEDF" stroke-width="2.31" stroke-miterlimit="10"/>
</svg>
