<svg width="36" height="36" viewBox="0 0 36 36" fill="none" xmlns="http://www.w3.org/2000/svg">
<path d="M1.69937 12.0412H8.51578V33.9392H1.69937V12.0412ZM5.10756 1.15504C5.88965 1.15504 6.65418 1.38707 7.30435 1.82175C7.95452 2.25643 8.4611 2.87422 8.76001 3.59694C9.05892 4.31965 9.13671 5.1148 8.98352 5.88174C8.83033 6.64868 8.45307 7.35294 7.89946 7.90537C7.34585 8.45781 6.6408 8.83359 5.87353 8.98515C5.10627 9.13672 4.31127 9.05724 3.58919 8.7568C2.86711 8.45636 2.2504 7.94846 1.8171 7.29737C1.3838 6.64628 1.15338 5.88127 1.15504 5.09918C1.15504 4.58053 1.25735 4.06696 1.45608 3.58789C1.65482 3.10882 1.9461 2.67364 2.31323 2.30729C2.68037 1.94093 3.11613 1.65058 3.59563 1.45286C4.07512 1.25514 4.5889 1.15394 5.10756 1.15504Z" stroke="#37BEDF" stroke-width="2.31" stroke-miterlimit="10"/>
<path d="M12.7866 12.0414H19.3183V15.0309H19.4104C20.0625 13.9133 21.0062 12.9941 22.1405 12.3716C23.2749 11.7491 24.5571 11.4468 25.85 11.4971C32.7418 11.4971 34.0147 16.0274 34.0147 21.9311V33.9394H27.215V23.3212C27.215 20.809 27.1648 17.5096 23.6728 17.5096C20.1808 17.5096 19.5863 20.273 19.5863 23.1285V33.9645H12.7866V12.0414Z" stroke="#37BEDF" stroke-width="2.31" stroke-miterlimit="10"/>
</svg>
