<svg width="167" height="23" viewBox="0 0 167 23" fill="none" xmlns="http://www.w3.org/2000/svg">
<path d="M7.32806 16.1108V8.04909H19.1008V9.64773H9.14365V11.5889H19.1008V13.1305H9.14365V16.1108H7.32806ZM26.1501 16.1108C24.2698 16.1108 22.8995 15.7111 22.0393 14.9118C21.1867 14.1125 20.7604 12.826 20.7604 11.0522V8.04909H22.576V11.0408C22.576 12.3121 22.8386 13.2104 23.3639 13.7357C23.8968 14.2533 24.8103 14.5121 26.1044 14.5121H28.4224C29.7318 14.5121 30.6643 14.2495 31.22 13.7242C31.7834 13.1914 32.065 12.2969 32.065 11.0408V8.04909H33.8692V11.0522C33.8692 12.8183 33.4239 14.1049 32.5332 14.9118C31.6501 15.7111 30.2609 16.1108 28.3653 16.1108H26.1501ZM35.626 16.1108V14.5121H44.7496C45.5946 14.5121 46.0171 14.2229 46.0171 13.6443C46.0171 13.355 45.9143 13.1457 45.7088 13.0163C45.5109 12.8869 45.1911 12.8222 44.7496 12.8222H38.3208C37.3617 12.8222 36.6537 12.6052 36.1969 12.1713C35.7478 11.7374 35.5232 11.1588 35.5232 10.4356C35.5232 9.69721 35.7478 9.11485 36.1969 8.68855C36.6537 8.26224 37.3617 8.04909 38.3208 8.04909H47.513V9.64773H38.5264C38.1305 9.64773 37.8412 9.71243 37.6585 9.84185C37.4758 9.97126 37.3845 10.1844 37.3845 10.4813C37.3845 10.7706 37.472 10.9761 37.6471 11.0979C37.8298 11.2197 38.1229 11.2806 38.5264 11.2806H45.0351C46.0171 11.2806 46.7365 11.4976 47.1932 11.9315C47.65 12.3654 47.8784 12.9516 47.8784 13.69C47.8784 14.436 47.65 15.026 47.1932 15.4599C46.7441 15.8938 46.0247 16.1108 45.0351 16.1108H35.626ZM49.6245 16.1108V8.04909H51.4401V16.1108H49.6245ZM58.1169 16.1108C56.4346 16.1108 55.1899 15.7796 54.383 15.1173C53.5837 14.4474 53.184 13.4578 53.184 12.1484V12.0571C53.184 9.38509 54.8283 8.04909 58.1169 8.04909H62.1021C65.3907 8.04909 67.035 9.38509 67.035 12.0571V12.1484C67.035 13.4578 66.6316 14.4474 65.8246 15.1173C65.0253 15.7796 63.7845 16.1108 62.1021 16.1108H58.1169ZM58.0713 14.5121H62.1592C63.2326 14.5121 64.0128 14.318 64.5 13.9298C64.9873 13.5415 65.2309 12.944 65.2309 12.137V12.0457C65.2309 11.2235 64.9873 10.6183 64.5 10.2301C64.0205 9.84185 63.2402 9.64773 62.1592 9.64773H58.0713C56.9903 9.64773 56.2062 9.84185 55.719 10.2301C55.2394 10.6183 54.9996 11.2235 54.9996 12.0457V12.137C54.9996 12.9516 55.2394 13.553 55.719 13.9412C56.2062 14.3218 56.9903 14.5121 58.0713 14.5121ZM81.7425 16.3163L70.5978 10.6412V16.1108H68.7822V7.84356L79.9384 13.5187V8.04909H81.7425V16.3163ZM94.0206 16.1108V9.64773H88.6309V8.04909H101.203V9.64773H95.8248V16.1108H94.0206ZM106.937 16.1108C105.254 16.1108 104.01 15.7796 103.203 15.1173C102.404 14.4474 102.004 13.4578 102.004 12.1484V12.0571C102.004 9.38509 103.648 8.04909 106.937 8.04909H110.922C114.211 8.04909 115.855 9.38509 115.855 12.0571V12.1484C115.855 13.4578 115.451 14.4474 114.644 15.1173C113.845 15.7796 112.604 16.1108 110.922 16.1108H106.937ZM106.891 14.5121H110.979C112.052 14.5121 112.833 14.318 113.32 13.9298C113.807 13.5415 114.051 12.944 114.051 12.137V12.0457C114.051 11.2235 113.807 10.6183 113.32 10.2301C112.84 9.84185 112.06 9.64773 110.979 9.64773H106.891C105.81 9.64773 105.026 9.84185 104.539 10.2301C104.059 10.6183 103.819 11.2235 103.819 12.0457V12.137C103.819 12.9516 104.059 13.553 104.539 13.9412C105.026 14.3218 105.81 14.5121 106.891 14.5121ZM121.224 16.2935L115.914 8.04909H117.913L121.35 13.3474L125.323 7.79788L129.309 13.3474L132.734 8.04909H134.732L129.423 16.2935L125.323 10.5612L121.224 16.2935ZM135.734 16.1108V8.04909H147.324V9.64773H137.549V11.2806H147.324V12.8222H137.549V14.5121H147.324V16.1108H135.734ZM162.273 11.1322C162.273 12.5862 161.596 13.4844 160.241 13.827L161.873 16.1108H159.772L158.379 14.0097H151.265V16.1108H149.45V8.04909H158.528C161.025 8.04909 162.273 9.05775 162.273 11.0751V11.1322ZM160.469 11.1093V11.0522C160.469 10.5726 160.317 10.2187 160.012 9.99029C159.715 9.76191 159.224 9.64773 158.539 9.64773H151.265V12.4339H158.539C159.24 12.4339 159.734 12.3311 160.024 12.1256C160.32 11.9125 160.469 11.5737 160.469 11.1093Z" fill="white"/>
</svg>
