<svg width="23" height="27" viewBox="0 0 23 27" fill="none" xmlns="http://www.w3.org/2000/svg">
<path d="M15.3333 20.8636H2.55556V6.13636H15.3333V7.36364H17.8889V2.45455C17.8889 1.10455 16.7389 0 15.3333 0H2.55556C1.15 0 0 1.10455 0 2.45455V24.5455C0 25.8955 1.15 27 2.55556 27H15.3333C16.7389 27 17.8889 25.8955 17.8889 24.5455V19.6364H15.3333V20.8636Z" fill="#37BEDF"/>
<path d="M19.652 10.5791L20.4442 12.2727L21.2365 10.5791L22.9998 9.81819L21.2365 9.05728L20.4442 7.36365L19.652 9.05728L17.8887 9.81819L19.652 10.5791Z" fill="#37BEDF"/>
<path d="M14.0554 8.59082L12.4582 11.9658L8.94434 13.4999L12.4582 15.034L14.0554 18.409L15.6527 15.034L19.1666 13.4999L15.6527 11.9658L14.0554 8.59082Z" fill="#37BEDF"/>
<path d="M20.4442 14.7273L19.652 16.4209L17.8887 17.1818L19.652 17.9427L20.4442 19.6364L21.2365 17.9427L22.9998 17.1818L21.2365 16.4209L20.4442 14.7273Z" fill="#37BEDF"/>
</svg>
