<svg width="24" height="24" viewBox="0 0 24 24" fill="none" xmlns="http://www.w3.org/2000/svg">
<path d="M9 12C9.55 12 10.021 11.804 10.413 11.412C10.8043 11.0207 11 10.55 11 10C11 9.45 10.8043 8.979 10.413 8.587C10.021 8.19567 9.55 8 9 8C8.45 8 7.97933 8.19567 7.588 8.587C7.196 8.979 7 9.45 7 10C7 10.55 7.196 11.0207 7.588 11.412C7.97933 11.804 8.45 12 9 12ZM15 12C15.55 12 16.021 11.804 16.413 11.412C16.8043 11.0207 17 10.55 17 10C17 9.45 16.8043 8.979 16.413 8.587C16.021 8.19567 15.55 8 15 8C14.45 8 13.9793 8.19567 13.588 8.587C13.196 8.979 13 9.45 13 10C13 10.55 13.196 11.0207 13.588 11.412C13.9793 11.804 14.45 12 15 12ZM9 21V17H11V21H9ZM13 21V17H15V21H13ZM5 21C4.45 21 3.979 20.8043 3.587 20.413C3.19567 20.021 3 19.55 3 19V9C3 7.33333 3.58333 5.91667 4.75 4.75C5.91667 3.58333 7.33333 3 9 3H15C16.6667 3 18.0833 3.58333 19.25 4.75C20.4167 5.91667 21 7.33333 21 9V19C21 19.55 20.8043 20.021 20.413 20.413C20.021 20.8043 19.55 21 19 21H17V17C17 16.45 16.8043 15.9793 16.413 15.588C16.021 15.196 15.55 15 15 15H9C8.45 15 7.97933 15.196 7.588 15.588C7.196 15.9793 7 16.45 7 17V21H5Z" fill="#37BEDF"/>
</svg>
