<svg width="24" height="24" viewBox="0 0 24 24" fill="none" xmlns="http://www.w3.org/2000/svg">
<g clip-path="url(#clip0_324_312)">
<path d="M13 5H11V1H13V5ZM1 11H5V13H1V11ZM19 13V11H23V13H19ZM17.66 7.76L16.25 6.35L19.08 3.52L20.49 4.93L17.66 7.76ZM3.51 4.93L4.92 3.52L7.75 6.35L6.34 7.76L3.51 4.93ZM4.75 17C4.75 17.3315 4.8817 17.6495 5.11612 17.8839C5.35054 18.1183 5.66848 18.25 6 18.25C6.33152 18.25 6.64946 18.1183 6.88388 17.8839C7.1183 17.6495 7.25 17.3315 7.25 17C7.25 16.6685 7.1183 16.3505 6.88388 16.1161C6.64946 15.8817 6.33152 15.75 6 15.75C5.66848 15.75 5.35054 15.8817 5.11612 16.1161C4.8817 16.3505 4.75 16.6685 4.75 17ZM16.75 17C16.75 17.3315 16.8817 17.6495 17.1161 17.8839C17.3505 18.1183 17.6685 18.25 18 18.25C18.3315 18.25 18.6495 18.1183 18.8839 17.8839C19.1183 17.6495 19.25 17.3315 19.25 17C19.25 16.6685 19.1183 16.3505 18.8839 16.1161C18.6495 15.8817 18.3315 15.75 18 15.75C17.6685 15.75 17.3505 15.8817 17.1161 16.1161C16.8817 16.3505 16.75 16.6685 16.75 17ZM7.75 21C7.75 21.3315 7.8817 21.6495 8.11612 21.8839C8.35054 22.1183 8.66848 22.25 9 22.25C9.33152 22.25 9.64946 22.1183 9.88388 21.8839C10.1183 21.6495 10.25 21.3315 10.25 21C10.25 20.6685 10.1183 20.3505 9.88388 20.1161C9.64946 19.8817 9.33152 19.75 9 19.75C8.66848 19.75 8.35054 19.8817 8.11612 20.1161C7.8817 20.3505 7.75 20.6685 7.75 21ZM10.75 17C10.75 17.3315 10.8817 17.6495 11.1161 17.8839C11.3505 18.1183 11.6685 18.25 12 18.25C12.3315 18.25 12.6495 18.1183 12.8839 17.8839C13.1183 17.6495 13.25 17.3315 13.25 17C13.25 16.6685 13.1183 16.3505 12.8839 16.1161C12.6495 15.8817 12.3315 15.75 12 15.75C11.6685 15.75 11.3505 15.8817 11.1161 16.1161C10.8817 16.3505 10.75 16.6685 10.75 17ZM13.75 21C13.75 21.3315 13.8817 21.6495 14.1161 21.8839C14.3505 22.1183 14.6685 22.25 15 22.25C15.3315 22.25 15.6495 22.1183 15.8839 21.8839C16.1183 21.6495 16.25 21.3315 16.25 21C16.25 20.6685 16.1183 20.3505 15.8839 20.1161C15.6495 19.8817 15.3315 19.75 15 19.75C14.6685 19.75 14.3505 19.8817 14.1161 20.1161C13.8817 20.3505 13.75 20.6685 13.75 21ZM17 13V12C17 9.24 14.76 7 12 7C9.24 7 7 9.24 7 12V13H17Z" fill="#37DFD9"/>
</g>
<defs>
<clipPath id="clip0_324_312">
<rect width="24" height="24" fill="white"/>
</clipPath>
</defs>
</svg>
