<svg width="105" height="100" viewBox="0 0 105 100" fill="none" xmlns="http://www.w3.org/2000/svg">
<circle cx="42.811" cy="53.6631" r="10" fill="url(#paint0_linear_488_494)"/>
<circle cx="55.811" cy="43.6631" r="10" fill="url(#paint1_linear_488_494)"/>
<circle cx="55.811" cy="57.6631" r="10" fill="url(#paint2_linear_488_494)"/>
<path d="M65.311 46.2059C86.759 66.791 100.733 85.5232 97.1726 89.4006C93.3057 93.6118 70.2195 78.7053 45.6082 56.1061C20.9968 33.5068 4.18015 11.7727 8.04705 7.56151C11.5283 3.77031 30.5865 15.4737 52.311 34.3354" stroke="#37BEDF" stroke-width="0.5"/>
<path d="M57.811 34.0004C77.8888 18.1213 94.6811 8.81601 97.8069 12.4057C101.561 16.7175 84.177 38.0004 58.978 59.9424C33.7789 81.8844 10.3075 96.1765 6.55306 91.8648C3.45349 88.3051 14.7616 73.1783 32.98 55.6631" stroke="#37BEDF" stroke-width="0.5"/>
<defs>
<linearGradient id="paint0_linear_488_494" x1="49.1444" y1="47.6631" x2="36.4777" y2="60.6631" gradientUnits="userSpaceOnUse">
<stop offset="0.0634019" stop-color="#37BEDF"/>
<stop offset="0.670954" stop-color="#104C9A"/>
<stop offset="0.919809" stop-color="#0A2A54"/>
</linearGradient>
<linearGradient id="paint1_linear_488_494" x1="62.1444" y1="37.6631" x2="49.4777" y2="50.6631" gradientUnits="userSpaceOnUse">
<stop offset="0.0634019" stop-color="#37BEDF"/>
<stop offset="0.670954" stop-color="#104C9A"/>
<stop offset="0.919809" stop-color="#0A2A54"/>
</linearGradient>
<linearGradient id="paint2_linear_488_494" x1="62.1444" y1="51.6631" x2="49.4777" y2="64.6631" gradientUnits="userSpaceOnUse">
<stop offset="0.0634019" stop-color="#37BEDF"/>
<stop offset="0.670954" stop-color="#104C9A"/>
<stop offset="0.919809" stop-color="#0A2A54"/>
</linearGradient>
</defs>
</svg>
