<svg width="105" height="122" viewBox="0 0 105 122" fill="none" xmlns="http://www.w3.org/2000/svg">
<circle cx="42.811" cy="62.25" r="10" fill="url(#paint0_linear_488_502)"/>
<circle cx="55.811" cy="52.25" r="10" fill="url(#paint1_linear_488_502)"/>
<circle cx="55.811" cy="66.25" r="10" fill="url(#paint2_linear_488_502)"/>
<path d="M65.311 54.7938C86.759 75.3789 100.733 94.1111 97.1726 97.9885C93.3057 102.2 70.2195 87.2932 45.6082 64.694C20.9968 42.0947 4.18015 20.3606 8.04705 16.1494C11.5283 12.3582 30.5865 24.0616 52.311 42.9233" stroke="#37BEDF" stroke-width="0.5"/>
<path d="M57.811 42.5873C77.8888 26.7082 94.6811 17.4029 97.8069 20.9927C101.561 25.3044 84.177 46.5873 58.978 68.5293C33.7789 90.4713 10.3075 104.763 6.55306 100.452C3.45349 96.892 14.7616 81.7652 32.98 64.25" stroke="#37BEDF" stroke-width="0.5"/>
<path d="M42.0951 52.1372C43.1489 26.5677 46.6427 0.250001 50.7904 0.250001C55.7724 0.25 59.811 27.3368 59.811 60.75C59.811 94.1632 55.7724 121.25 50.7905 121.25C46.6775 121.25 42.8964 97.3789 41.811 72.1372" stroke="#37BEDF" stroke-width="0.5"/>
<defs>
<linearGradient id="paint0_linear_488_502" x1="49.1444" y1="56.25" x2="36.4777" y2="69.25" gradientUnits="userSpaceOnUse">
<stop offset="0.0634019" stop-color="#37BEDF"/>
<stop offset="0.670954" stop-color="#104C9A"/>
<stop offset="0.919809" stop-color="#0A2A54"/>
</linearGradient>
<linearGradient id="paint1_linear_488_502" x1="62.1444" y1="46.25" x2="49.4777" y2="59.25" gradientUnits="userSpaceOnUse">
<stop offset="0.0634019" stop-color="#37BEDF"/>
<stop offset="0.670954" stop-color="#104C9A"/>
<stop offset="0.919809" stop-color="#0A2A54"/>
</linearGradient>
<linearGradient id="paint2_linear_488_502" x1="62.1444" y1="60.25" x2="49.4777" y2="73.25" gradientUnits="userSpaceOnUse">
<stop offset="0.0634019" stop-color="#37BEDF"/>
<stop offset="0.670954" stop-color="#104C9A"/>
<stop offset="0.919809" stop-color="#0A2A54"/>
</linearGradient>
</defs>
</svg>
