<svg width="49" height="49" viewBox="0 0 49 49" fill="none" xmlns="http://www.w3.org/2000/svg">
<path fill-rule="evenodd" clip-rule="evenodd" d="M35.4479 28.605C34.8879 28.305 32.1379 26.815 31.6179 26.605C31.0979 26.395 30.7279 26.285 30.3179 26.845C29.9079 27.405 28.7779 28.645 28.4379 29.015C28.0979 29.385 27.7579 29.415 27.1879 29.105C25.535 28.3666 24.02 27.3521 22.7079 26.105C21.5163 24.9005 20.5058 23.5296 19.7079 22.035C19.3879 21.455 19.7079 21.155 19.9979 20.885C20.2879 20.615 20.5979 20.235 20.8979 19.885C21.1179 19.6199 21.3028 19.3275 21.4479 19.015C21.5356 18.863 21.5818 18.6905 21.5818 18.515C21.5818 18.3395 21.5356 18.167 21.4479 18.015C21.3179 17.725 20.2779 14.875 19.8479 13.715C19.4179 12.555 18.9379 12.715 18.5979 12.715C18.2579 12.715 17.8879 12.635 17.5079 12.625C17.2183 12.6244 16.9316 12.6826 16.6652 12.7961C16.3988 12.9095 16.1581 13.0758 15.9579 13.285C15.2903 13.871 14.7525 14.59 14.3788 15.3959C14.0051 16.2018 13.8038 17.0768 13.7879 17.965C13.6779 20.775 15.6279 23.555 15.8979 23.965C16.1679 24.375 19.6079 30.445 25.3179 32.965C31.0279 35.485 31.0579 34.705 32.1079 34.655C33.1579 34.605 35.5279 33.395 36.0579 32.085C36.4679 31.2482 36.6177 30.3078 36.4879 29.385C36.3579 29.135 35.9879 28.985 35.4279 28.675L35.4479 28.605ZM24.9579 1.185C20.999 1.18298 17.1107 2.23302 13.691 4.22762C10.2713 6.22222 7.44303 9.08973 5.49577 12.5366C3.54851 15.9835 2.55218 19.8859 2.60878 23.8444C2.66538 27.8029 3.77286 31.6752 5.81787 35.065L1.81787 47.065L14.1879 43.065C17.1733 44.7154 20.4969 45.6606 23.904 45.8281C27.3111 45.9955 30.7114 45.3809 33.8443 44.0312C36.9771 42.6815 39.7595 40.6326 41.9781 38.0414C44.1968 35.4502 45.7929 32.3856 46.6442 29.0823C47.4954 25.779 47.5792 22.3246 46.8892 18.9839C46.1991 15.6432 44.7535 12.5047 42.6631 9.80902C40.5728 7.11332 37.893 4.93188 34.8293 3.43184C31.7656 1.9318 28.3991 1.15296 24.9879 1.155L24.9579 1.185Z" stroke="#37BEDF" stroke-width="2.31" stroke-miterlimit="10"/>
</svg>
